<mxfile host="app.diagrams.net" modified="2024-01-02T01:46:58.897Z" agent="Mozilla/5.0 (Windows NT 10.0; Win64; x64) AppleWebKit/537.36 (KHTML, like Gecko) Chrome/120.0.0.0 Safari/537.36 Edg/120.0.0.0" version="22.1.16" etag="oywV4MW4c4p92Am4kt41" type="github">
  <diagram name="第 1 页" id="ho6mbHBVOcNbarif4za9">
    <mxGraphModel>
      <root>
        <mxCell id="0" />
        <mxCell id="1" parent="0" />
      </root>
    </mxGraphModel>
  </diagram>
</mxfile>
